# xmcd
#
# Track frame offsets:
#	150
#	6909
#	21647
#	44205
#	69456
#	90893
#	125536
#	148382
#	172118
#
# Disc length: 2737 seconds
#
# Revision: 2
# Processed by: cddbd v1.5.1PL2 Copyright (c) Steve Scherf et al.
# Submitted via: EasyCDDAExtractor 8.0.2.1
#
DISCID=860aaf09
DTITLE=Dio - Irvine Meadows Irvine 26-07-86 Disc 1
DYEAR=1986
DGENRE=Hard Rock
TTITLE0=Intro
TTITLE1=King Of Rock and Roll
TTITLE2=Like The Beat Of A Heart
TTITLE3=Don't Talk To Strangers
TTITLE4=Time To Burn
TTITLE5=The Last In Line
TTITLE6=Drum Solo
TTITLE7=Heaven and Hell
TTITLE8=Keyboard Solo
EXTD=
EXTT0=
EXTT1=
EXTT2=
EXTT3=
EXTT4=
EXTT5=
EXTT6=
EXTT7=
EXTT8=
PLAYORDER=
